<svg xmlns="http://www.w3.org/2000/svg" xmlns:xlink="http://www.w3.org/1999/xlink" width="247" height="339" viewBox="0 0 247 339">
    <defs>
        <path id="bv9clqwhca" d="M0 0L246.971 0 246.971 329 0 329z"/>
        <path id="cg4bhe070c" d="M0 339L246.971 339 246.971 0 0 0z"/>
    </defs>
    <g fill="none" fill-rule="evenodd">
        <g>
            <g>
                <g transform="translate(-1217 -3899) translate(378 3718) translate(839 181)">
                    <path fill="#CCC" d="M232.76 339H14.21c-5.154 0-9.33-4.178-9.33-9.331V32.331C4.88 27.178 9.055 23 14.21 23h218.55c5.153 0 9.331 4.178 9.331 9.331v297.338c0 5.153-4.178 9.331-9.33 9.331"/>
                    <g>
                        <mask id="a7sv939ptb" fill="#fff">
                            <use xlink:href="#bv9clqwhca"/>
                        </mask>
                        <path fill="#F2F2F2" d="M237.64 329H9.33C4.179 329 0 324.822 0 319.669V9.331C0 4.178 4.178 0 9.33 0h228.31c5.153 0 9.33 4.178 9.33 9.331v310.338c0 5.153-4.177 9.331-9.33 9.331" mask="url(#a7sv939ptb)"/>
                    </g>
                    <mask id="vjbcwsanxd" fill="#fff">
                        <use xlink:href="#cg4bhe070c"/>
                    </mask>
                    <path fill="#4C8AD1" d="M46.307 148.182L64.741 148.182 64.741 134.629 46.307 134.629zM75.877 148.182L94.311 148.182 94.311 129.66 75.877 129.66zM105.448 148.182L123.882 148.182 123.882 119.957 105.448 119.957zM135.018 148.182L153.452 148.182 153.452 111.137 135.018 111.137zM164.589 148.182L183.023 148.182 183.023 84.676 164.589 84.676z" mask="url(#vjbcwsanxd)"/>
                    <path fill="#14253D" d="M142.008 44.984H50.276c-3.166 0-5.733-2.567-5.733-5.733 0-3.166 2.567-5.733 5.733-5.733h91.732c3.167 0 5.733 2.567 5.733 5.733 0 3.166-2.566 5.733-5.733 5.733M86.636 61.546H51.844c-2.083 0-3.773-1.689-3.773-3.773S49.76 54 51.844 54h34.792c2.084 0 3.773 1.69 3.773 3.773 0 2.084-1.69 3.773-3.773 3.773M104.276 78.305H51.846c-2.084 0-3.774-1.689-3.774-3.773s1.69-3.773 3.773-3.773h52.432c2.085 0 3.773 1.69 3.773 3.773 0 2.084-1.689 3.773-3.773 3.773M196.695 218.745h-37.928c-3.166 0-5.733-2.567-5.733-5.733 0-3.166 2.567-5.733 5.733-5.733h37.928c3.166 0 5.733 2.567 5.733 5.733 0 3.166-2.567 5.733-5.733 5.733M177.486 234.426h-17.151c-2.085 0-3.774-1.69-3.774-3.773 0-2.084 1.69-3.773 3.773-3.773h17.151c2.084 0 3.773 1.689 3.773 3.773s-1.689 3.773-3.773 3.773" mask="url(#vjbcwsanxd)"/>
                    <path fill="#4C8AD1" d="M141.567 231.094c0-26.305-21.325-47.63-47.63-47.63-26.305 0-47.63 21.325-47.63 47.63 0 26.306 21.325 47.63 47.63 47.63 26.305 0 47.63-21.324 47.63-47.63" mask="url(#vjbcwsanxd)"/>
                    <path fill="#8FC3FF" d="M93.937 231.094l-.167-47.63c-26.066.092-47.463 21.564-47.463 47.63 0 26.129 21.5 47.63 47.63 47.63 26.129 0 47.63-21.501 47.63-47.63h-47.63z" mask="url(#vjbcwsanxd)"/>
                    <path fill="#14253D" d="M93.937 231.094l39.942 25.948c2.496-3.842 4.424-8.024 5.725-12.416 1.302-4.393 1.963-8.95 1.963-13.532h-47.63z" mask="url(#vjbcwsanxd)"/>
                    <path fill="#F2F2F2" d="M119.516 231.094c0-14.127-11.452-25.58-25.579-25.58s-25.579 11.453-25.579 25.58c0 14.127 11.452 25.579 25.579 25.579s25.579-11.452 25.579-25.58" mask="url(#vjbcwsanxd)"/>
                </g>
            </g>
        </g>
    </g>
</svg>
